<svg width="90" height="12" viewBox="0 0 90 12" fill="none" xmlns="http://www.w3.org/2000/svg">
<g clip-path="url(#clip0_25_151)">
<path d="M10.77 7.5H8.5C8.23478 7.5 7.98043 7.60536 7.79289 7.79289C7.60536 7.98043 7.5 8.23478 7.5 8.5V10.77" stroke="#16A34A" stroke-linecap="round" stroke-linejoin="round"/>
<path d="M3.5 1.67V2.5C3.5 2.89782 3.65804 3.27935 3.93934 3.56066C4.22064 3.84196 4.60218 4 5 4C5.26522 4 5.51957 4.10536 5.70711 4.29289C5.89464 4.48043 6 4.73478 6 5C6 5.55 6.45 6 7 6C7.26522 6 7.51957 5.89464 7.70711 5.7071C7.89464 5.51957 8 5.26521 8 5C8 4.45 8.45 4 9 4H10.585" stroke="#16A34A" stroke-linecap="round" stroke-linejoin="round"/>
<path d="M5.49999 10.975V9C5.49999 8.73478 5.39464 8.48043 5.2071 8.29289C5.01956 8.10536 4.76521 8 4.49999 8C4.23478 8 3.98042 7.89464 3.79289 7.70711C3.60535 7.51957 3.49999 7.26522 3.49999 7V6.5C3.49999 6.23478 3.39464 5.98043 3.2071 5.79289C3.01956 5.60536 2.76521 5.5 2.49999 5.5H1.02499" stroke="#16A34A" stroke-linecap="round" stroke-linejoin="round"/>
<path d="M6 11C8.76142 11 11 8.76142 11 6C11 3.23858 8.76142 1 6 1C3.23858 1 1 3.23858 1 6C1 8.76142 3.23858 11 6 11Z" stroke="#16A34A" stroke-linecap="round" stroke-linejoin="round"/>
</g>
<path d="M19.784 9.096C19.4373 9.096 19.1173 9.03467 18.824 8.912C18.536 8.78933 18.288 8.61333 18.08 8.384C17.872 8.14933 17.7093 7.864 17.592 7.528C17.4747 7.18667 17.416 6.80267 17.416 6.376C17.416 5.95467 17.4747 5.576 17.592 5.24C17.7147 4.904 17.8827 4.61867 18.096 4.384C18.3093 4.14933 18.5627 3.97067 18.856 3.848C19.1547 3.72 19.4773 3.656 19.824 3.656C20.0053 3.656 20.1707 3.67467 20.32 3.712C20.4747 3.74933 20.6133 3.8 20.736 3.864C20.864 3.92267 20.976 3.992 21.072 4.072C21.1733 4.14667 21.2613 4.224 21.336 4.304L20.968 4.736C20.8347 4.59733 20.68 4.48 20.504 4.384C20.328 4.288 20.1067 4.24 19.84 4.24C19.5733 4.24 19.3333 4.29067 19.12 4.392C18.9067 4.488 18.7253 4.62933 18.576 4.816C18.4267 4.99733 18.3093 5.21867 18.224 5.48C18.144 5.74133 18.104 6.03467 18.104 6.36C18.104 6.69067 18.1413 6.98933 18.216 7.256C18.296 7.51733 18.408 7.74133 18.552 7.928C18.7013 8.11467 18.8827 8.25867 19.096 8.36C19.3147 8.46133 19.5653 8.512 19.848 8.512C20.0347 8.512 20.2107 8.48533 20.376 8.432C20.5467 8.37333 20.6853 8.296 20.792 8.2V6.832H19.68V6.28H21.4V8.488C21.2293 8.664 21.0053 8.81067 20.728 8.928C20.4507 9.04 20.136 9.096 19.784 9.096ZM23.2895 9.096C23.0388 9.096 22.8602 9.02133 22.7535 8.872C22.6468 8.72267 22.5935 8.504 22.5935 8.216V3.304H23.2495V8.264C23.2495 8.37067 23.2682 8.44533 23.3055 8.488C23.3428 8.53067 23.3855 8.552 23.4335 8.552C23.4548 8.552 23.4735 8.552 23.4895 8.552C23.5108 8.552 23.5402 8.54667 23.5775 8.536L23.6655 9.032C23.6228 9.05333 23.5722 9.06933 23.5135 9.08C23.4548 9.09067 23.3802 9.096 23.2895 9.096ZM26.1446 9.096C25.9046 9.096 25.6752 9.05067 25.4566 8.96C25.2432 8.86933 25.0539 8.73867 24.8886 8.568C24.7232 8.392 24.5899 8.17867 24.4886 7.928C24.3926 7.672 24.3446 7.384 24.3446 7.064C24.3446 6.73867 24.3926 6.45067 24.4886 6.2C24.5899 5.944 24.7232 5.728 24.8886 5.552C25.0539 5.376 25.2432 5.24267 25.4566 5.152C25.6752 5.06133 25.9046 5.016 26.1446 5.016C26.3846 5.016 26.6112 5.06133 26.8246 5.152C27.0432 5.24267 27.2352 5.376 27.4006 5.552C27.5659 5.728 27.6966 5.944 27.7926 6.2C27.8939 6.45067 27.9446 6.73867 27.9446 7.064C27.9446 7.384 27.8939 7.672 27.7926 7.928C27.6966 8.17867 27.5659 8.392 27.4006 8.568C27.2352 8.73867 27.0432 8.86933 26.8246 8.96C26.6112 9.05067 26.3846 9.096 26.1446 9.096ZM26.1446 8.552C26.3099 8.552 26.4619 8.51733 26.6006 8.448C26.7392 8.37333 26.8566 8.272 26.9526 8.144C27.0539 8.01067 27.1312 7.85333 27.1846 7.672C27.2379 7.49067 27.2646 7.288 27.2646 7.064C27.2646 6.84 27.2379 6.63733 27.1846 6.456C27.1312 6.26933 27.0539 6.10933 26.9526 5.976C26.8566 5.84267 26.7392 5.74133 26.6006 5.672C26.4619 5.59733 26.3099 5.56 26.1446 5.56C25.9792 5.56 25.8272 5.59733 25.6886 5.672C25.5499 5.74133 25.4299 5.84267 25.3286 5.976C25.2326 6.10933 25.1579 6.26933 25.1046 6.456C25.0512 6.63733 25.0246 6.84 25.0246 7.064C25.0246 7.288 25.0512 7.49067 25.1046 7.672C25.1579 7.85333 25.2326 8.01067 25.3286 8.144C25.4299 8.272 25.5499 8.37333 25.6886 8.448C25.8272 8.51733 25.9792 8.552 26.1446 8.552ZM30.6885 9.096C30.5072 9.096 30.3178 9.05333 30.1205 8.968C29.9285 8.87733 29.7472 8.75467 29.5765 8.6H29.5525L29.4965 9H28.9685V3.304H29.6245V4.856L29.6085 5.56C29.7845 5.40533 29.9765 5.27733 30.1845 5.176C30.3925 5.06933 30.6058 5.016 30.8245 5.016C31.0752 5.016 31.2965 5.064 31.4885 5.16C31.6805 5.25067 31.8405 5.384 31.9685 5.56C32.1018 5.73067 32.2005 5.93867 32.2645 6.184C32.3338 6.424 32.3685 6.69333 32.3685 6.992C32.3685 7.32267 32.3232 7.61867 32.2325 7.88C32.1418 8.14133 32.0192 8.36267 31.8645 8.544C31.7098 8.72533 31.5312 8.864 31.3285 8.96C31.1258 9.05067 30.9125 9.096 30.6885 9.096ZM30.5765 8.544C30.7365 8.544 30.8832 8.50933 31.0165 8.44C31.1552 8.36533 31.2725 8.264 31.3685 8.136C31.4698 8.00267 31.5472 7.84 31.6005 7.648C31.6592 7.456 31.6885 7.24 31.6885 7C31.6885 6.78667 31.6698 6.592 31.6325 6.416C31.5952 6.24 31.5338 6.09067 31.4485 5.968C31.3685 5.84 31.2618 5.74133 31.1285 5.672C31.0005 5.60267 30.8458 5.568 30.6645 5.568C30.3498 5.568 30.0032 5.744 29.6245 6.096V8.136C29.7952 8.28533 29.9632 8.392 30.1285 8.456C30.2992 8.51467 30.4485 8.544 30.5765 8.544ZM34.177 9.096C33.8517 9.096 33.5797 9 33.361 8.808C33.1477 8.616 33.041 8.344 33.041 7.992C33.041 7.56533 33.2303 7.24 33.609 7.016C33.9877 6.78667 34.593 6.62667 35.425 6.536C35.425 6.41333 35.4117 6.29333 35.385 6.176C35.3637 6.05867 35.3237 5.95467 35.265 5.864C35.2063 5.77333 35.1237 5.70133 35.017 5.648C34.9157 5.58933 34.785 5.56 34.625 5.56C34.401 5.56 34.1903 5.60267 33.993 5.688C33.7957 5.77333 33.6197 5.86933 33.465 5.976L33.209 5.52C33.3903 5.40267 33.6117 5.29067 33.873 5.184C34.1343 5.072 34.4223 5.016 34.737 5.016C35.2117 5.016 35.5557 5.16267 35.769 5.456C35.9823 5.744 36.089 6.13067 36.089 6.616V9H35.545L35.489 8.536H35.465C35.2783 8.69067 35.0783 8.824 34.865 8.936C34.6517 9.04267 34.4223 9.096 34.177 9.096ZM34.369 8.568C34.5557 8.568 34.7317 8.52533 34.897 8.44C35.0623 8.34933 35.2383 8.21867 35.425 8.048V6.968C35.0997 7.01067 34.825 7.06133 34.601 7.12C34.3823 7.17867 34.2037 7.248 34.065 7.328C33.9317 7.408 33.833 7.50133 33.769 7.608C33.7103 7.70933 33.681 7.82133 33.681 7.944C33.681 8.168 33.7477 8.328 33.881 8.424C34.0143 8.52 34.177 8.568 34.369 8.568ZM38.0083 9.096C37.7576 9.096 37.5789 9.02133 37.4723 8.872C37.3656 8.72267 37.3123 8.504 37.3123 8.216V3.304H37.9683V8.264C37.9683 8.37067 37.9869 8.44533 38.0243 8.488C38.0616 8.53067 38.1043 8.552 38.1523 8.552C38.1736 8.552 38.1923 8.552 38.2083 8.552C38.2296 8.552 38.2589 8.54667 38.2963 8.536L38.3843 9.032C38.3416 9.05333 38.2909 9.06933 38.2323 9.08C38.1736 9.09067 38.0989 9.096 38.0083 9.096ZM41.0169 9V3.752H44.0409V4.312H41.6809V5.96H43.6729V6.528H41.6809V8.432H44.1209V9H41.0169ZM46.0676 9.096C45.7423 9.096 45.4703 9 45.2516 8.808C45.0383 8.616 44.9316 8.344 44.9316 7.992C44.9316 7.56533 45.121 7.24 45.4996 7.016C45.8783 6.78667 46.4836 6.62667 47.3156 6.536C47.3156 6.41333 47.3023 6.29333 47.2756 6.176C47.2543 6.05867 47.2143 5.95467 47.1556 5.864C47.097 5.77333 47.0143 5.70133 46.9076 5.648C46.8063 5.58933 46.6756 5.56 46.5156 5.56C46.2916 5.56 46.081 5.60267 45.8836 5.688C45.6863 5.77333 45.5103 5.86933 45.3556 5.976L45.0996 5.52C45.281 5.40267 45.5023 5.29067 45.7636 5.184C46.025 5.072 46.313 5.016 46.6276 5.016C47.1023 5.016 47.4463 5.16267 47.6596 5.456C47.873 5.744 47.9796 6.13067 47.9796 6.616V9H47.4356L47.3796 8.536H47.3556C47.169 8.69067 46.969 8.824 46.7556 8.936C46.5423 9.04267 46.313 9.096 46.0676 9.096ZM46.2596 8.568C46.4463 8.568 46.6223 8.52533 46.7876 8.44C46.953 8.34933 47.129 8.21867 47.3156 8.048V6.968C46.9903 7.01067 46.7156 7.06133 46.4916 7.12C46.273 7.17867 46.0943 7.248 45.9556 7.328C45.8223 7.408 45.7236 7.50133 45.6596 7.608C45.601 7.70933 45.5716 7.82133 45.5716 7.944C45.5716 8.168 45.6383 8.328 45.7716 8.424C45.905 8.52 46.0676 8.568 46.2596 8.568ZM49.2029 9V5.112H49.7469L49.8029 5.816H49.8269C49.9602 5.57067 50.1202 5.376 50.3069 5.232C50.4989 5.088 50.7069 5.016 50.9309 5.016C51.0855 5.016 51.2242 5.04267 51.3469 5.096L51.2189 5.672C51.1549 5.65067 51.0962 5.63467 51.0429 5.624C50.9895 5.61333 50.9229 5.608 50.8429 5.608C50.6775 5.608 50.5042 5.67467 50.3229 5.808C50.1469 5.94133 49.9922 6.17333 49.8589 6.504V9H49.2029ZM53.2003 9.096C52.9923 9.096 52.8163 9.064 52.6723 9C52.5336 8.936 52.419 8.848 52.3283 8.736C52.243 8.624 52.1816 8.488 52.1443 8.328C52.107 8.168 52.0883 7.992 52.0883 7.8V5.648H51.5123V5.152L52.1203 5.112L52.2003 4.024H52.7523V5.112H53.8003V5.648H52.7523V7.808C52.7523 8.048 52.795 8.23467 52.8803 8.368C52.971 8.496 53.1283 8.56 53.3523 8.56C53.4216 8.56 53.4963 8.54933 53.5763 8.528C53.6563 8.50667 53.7283 8.48267 53.7923 8.456L53.9203 8.952C53.8136 8.98933 53.6963 9.02133 53.5683 9.048C53.4456 9.08 53.323 9.096 53.2003 9.096ZM54.6794 9V3.304H55.3354V4.856L55.3114 5.656C55.4981 5.48 55.6928 5.33067 55.8954 5.208C56.0981 5.08 56.3354 5.016 56.6074 5.016C57.0181 5.016 57.3168 5.144 57.5034 5.4C57.6954 5.656 57.7914 6.03467 57.7914 6.536V9H57.1354V6.624C57.1354 6.256 57.0768 5.992 56.9594 5.832C56.8421 5.66667 56.6554 5.584 56.3994 5.584C56.1968 5.584 56.0181 5.63467 55.8634 5.736C55.7088 5.83733 55.5328 5.98667 55.3354 6.184V9H54.6794ZM60.6966 9V3.752H61.3606V9H60.6966ZM62.7341 9V5.112H63.2781L63.3341 5.672H63.3581C63.5448 5.48533 63.7395 5.33067 63.9421 5.208C64.1501 5.08 64.3901 5.016 64.6621 5.016C65.0728 5.016 65.3715 5.144 65.5581 5.4C65.7501 5.656 65.8461 6.03467 65.8461 6.536V9H65.1901V6.624C65.1901 6.256 65.1315 5.992 65.0141 5.832C64.8968 5.66667 64.7101 5.584 64.4541 5.584C64.2515 5.584 64.0728 5.63467 63.9181 5.736C63.7635 5.83733 63.5875 5.98667 63.3901 6.184V9H62.7341ZM67.1091 9V5.112H67.7651V9H67.1091ZM67.4451 4.312C67.3171 4.312 67.2078 4.272 67.1171 4.192C67.0318 4.112 66.9891 4.01067 66.9891 3.888C66.9891 3.76 67.0318 3.65867 67.1171 3.584C67.2078 3.504 67.3171 3.464 67.4451 3.464C67.5731 3.464 67.6798 3.504 67.7651 3.584C67.8558 3.65867 67.9011 3.76 67.9011 3.888C67.9011 4.01067 67.8558 4.112 67.7651 4.192C67.6798 4.272 67.5731 4.312 67.4451 4.312ZM70.3019 9.096C70.0939 9.096 69.9179 9.064 69.7739 9C69.6352 8.936 69.5205 8.848 69.4299 8.736C69.3445 8.624 69.2832 8.488 69.2459 8.328C69.2085 8.168 69.1899 7.992 69.1899 7.8V5.648H68.6139V5.152L69.2219 5.112L69.3019 4.024H69.8539V5.112H70.9019V5.648H69.8539V7.808C69.8539 8.048 69.8965 8.23467 69.9819 8.368C70.0725 8.496 70.2299 8.56 70.4539 8.56C70.5232 8.56 70.5979 8.54933 70.6779 8.528C70.7579 8.50667 70.8299 8.48267 70.8939 8.456L71.0219 8.952C70.9152 8.98933 70.7979 9.02133 70.6699 9.048C70.5472 9.08 70.4245 9.096 70.3019 9.096ZM71.781 9V5.112H72.437V9H71.781ZM72.117 4.312C71.989 4.312 71.8797 4.272 71.789 4.192C71.7037 4.112 71.661 4.01067 71.661 3.888C71.661 3.76 71.7037 3.65867 71.789 3.584C71.8797 3.504 71.989 3.464 72.117 3.464C72.245 3.464 72.3517 3.504 72.437 3.584C72.5277 3.65867 72.573 3.76 72.573 3.888C72.573 4.01067 72.5277 4.112 72.437 4.192C72.3517 4.272 72.245 4.312 72.117 4.312ZM74.6458 9.096C74.3204 9.096 74.0484 9 73.8298 8.808C73.6164 8.616 73.5098 8.344 73.5098 7.992C73.5098 7.56533 73.6991 7.24 74.0778 7.016C74.4564 6.78667 75.0618 6.62667 75.8938 6.536C75.8938 6.41333 75.8804 6.29333 75.8538 6.176C75.8324 6.05867 75.7924 5.95467 75.7338 5.864C75.6751 5.77333 75.5924 5.70133 75.4858 5.648C75.3844 5.58933 75.2538 5.56 75.0938 5.56C74.8698 5.56 74.6591 5.60267 74.4618 5.688C74.2644 5.77333 74.0884 5.86933 73.9338 5.976L73.6778 5.52C73.8591 5.40267 74.0804 5.29067 74.3418 5.184C74.6031 5.072 74.8911 5.016 75.2057 5.016C75.6804 5.016 76.0244 5.16267 76.2378 5.456C76.4511 5.744 76.5578 6.13067 76.5578 6.616V9H76.0138L75.9578 8.536H75.9338C75.7471 8.69067 75.5471 8.824 75.3338 8.936C75.1204 9.04267 74.8911 9.096 74.6458 9.096ZM74.8378 8.568C75.0244 8.568 75.2004 8.52533 75.3658 8.44C75.5311 8.34933 75.7071 8.21867 75.8938 8.048V6.968C75.5684 7.01067 75.2938 7.06133 75.0698 7.12C74.8511 7.17867 74.6724 7.248 74.5338 7.328C74.4004 7.408 74.3018 7.50133 74.2378 7.608C74.1791 7.70933 74.1497 7.82133 74.1497 7.944C74.1497 8.168 74.2164 8.328 74.3498 8.424C74.4831 8.52 74.6458 8.568 74.8378 8.568ZM78.8956 9.096C78.6876 9.096 78.5116 9.064 78.3676 9C78.229 8.936 78.1143 8.848 78.0236 8.736C77.9383 8.624 77.877 8.488 77.8396 8.328C77.8023 8.168 77.7836 7.992 77.7836 7.8V5.648H77.2076V5.152L77.8156 5.112L77.8956 4.024H78.4476V5.112H79.4956V5.648H78.4476V7.808C78.4476 8.048 78.4903 8.23467 78.5756 8.368C78.6663 8.496 78.8236 8.56 79.0476 8.56C79.117 8.56 79.1916 8.54933 79.2716 8.528C79.3516 8.50667 79.4236 8.48267 79.4876 8.456L79.6156 8.952C79.509 8.98933 79.3916 9.02133 79.2636 9.048C79.141 9.08 79.0183 9.096 78.8956 9.096ZM80.3748 9V5.112H81.0308V9H80.3748ZM80.7108 4.312C80.5828 4.312 80.4734 4.272 80.3828 4.192C80.2974 4.112 80.2548 4.01067 80.2548 3.888C80.2548 3.76 80.2974 3.65867 80.3828 3.584C80.4734 3.504 80.5828 3.464 80.7108 3.464C80.8388 3.464 80.9454 3.504 81.0308 3.584C81.1214 3.65867 81.1668 3.76 81.1668 3.888C81.1668 4.01067 81.1214 4.112 81.0308 4.192C80.9454 4.272 80.8388 4.312 80.7108 4.312ZM83.1835 9L81.7835 5.112H82.4635L83.1995 7.32C83.2582 7.512 83.3168 7.704 83.3755 7.896C83.4395 8.088 83.5008 8.27733 83.5595 8.464H83.5915C83.6502 8.27733 83.7088 8.088 83.7675 7.896C83.8262 7.704 83.8848 7.512 83.9435 7.32L84.6795 5.112H85.3275L83.9515 9H83.1835ZM87.6226 9.096C87.3613 9.096 87.116 9.05067 86.8866 8.96C86.6626 8.864 86.4653 8.73067 86.2946 8.56C86.1293 8.384 85.9986 8.17067 85.9026 7.92C85.8066 7.66933 85.7586 7.384 85.7586 7.064C85.7586 6.744 85.8066 6.45867 85.9026 6.208C86.004 5.952 86.1346 5.736 86.2946 5.56C86.46 5.384 86.6466 5.25067 86.8546 5.16C87.0626 5.064 87.2786 5.016 87.5026 5.016C87.748 5.016 87.9666 5.05867 88.1586 5.144C88.356 5.22933 88.5186 5.352 88.6466 5.512C88.78 5.672 88.8813 5.864 88.9506 6.088C89.02 6.312 89.0546 6.56267 89.0546 6.84C89.0546 6.90933 89.052 6.97867 89.0466 7.048C89.0466 7.112 89.0413 7.168 89.0306 7.216H86.4066C86.4333 7.632 86.5613 7.96267 86.7906 8.208C87.0253 8.448 87.3293 8.568 87.7026 8.568C87.8893 8.568 88.06 8.54133 88.2146 8.488C88.3746 8.42933 88.5266 8.35467 88.6706 8.264L88.9026 8.696C88.732 8.80267 88.5426 8.896 88.3346 8.976C88.1266 9.056 87.8893 9.096 87.6226 9.096ZM86.3986 6.744H88.4786C88.4786 6.34933 88.3933 6.05067 88.2226 5.848C88.0573 5.64 87.8226 5.536 87.5186 5.536C87.38 5.536 87.2466 5.56267 87.1186 5.616C86.996 5.66933 86.884 5.74933 86.7826 5.856C86.6813 5.95733 86.596 6.08267 86.5266 6.232C86.4626 6.38133 86.42 6.552 86.3986 6.744Z" fill="#16A34A"/>
<defs>
<clipPath id="clip0_25_151">
<rect width="12" height="12" fill="white"/>
</clipPath>
</defs>
</svg>
