<svg width="183" height="42" viewBox="0 0 183 42" fill="none" xmlns="http://www.w3.org/2000/svg">
<path d="M21 0L42 32.6667L21 42L0 32.6667L21 0Z" fill="#DC2626"/>
<path d="M54.112 33.288C53.12 33.288 52.208 33.104 51.376 32.736C50.544 32.368 49.816 31.84 49.192 31.152C48.584 30.448 48.104 29.592 47.752 28.584C47.416 27.56 47.248 26.408 47.248 25.128C47.248 23.864 47.424 22.728 47.776 21.72C48.128 20.712 48.616 19.856 49.24 19.152C49.864 18.448 50.6 17.912 51.448 17.544C52.296 17.16 53.224 16.968 54.232 16.968C55.192 16.968 56.032 17.168 56.752 17.568C57.488 17.952 58.088 18.4 58.552 18.912L57.472 20.208C57.056 19.76 56.584 19.4 56.056 19.128C55.528 18.856 54.928 18.72 54.256 18.72C53.504 18.72 52.824 18.872 52.216 19.176C51.608 19.464 51.088 19.888 50.656 20.448C50.224 20.992 49.888 21.656 49.648 22.44C49.424 23.224 49.312 24.104 49.312 25.08C49.312 26.072 49.424 26.968 49.648 27.768C49.888 28.552 50.216 29.224 50.632 29.784C51.048 30.344 51.552 30.776 52.144 31.08C52.752 31.384 53.432 31.536 54.184 31.536C54.952 31.536 55.624 31.384 56.2 31.08C56.776 30.76 57.32 30.32 57.832 29.76L58.936 31.008C58.312 31.728 57.608 32.288 56.824 32.688C56.04 33.088 55.136 33.288 54.112 33.288ZM61.8709 33V17.256H63.8629V33H61.8709ZM68.1756 33V17.256H70.2396L75.9276 27.144L77.6316 30.408H77.7276C77.6796 29.608 77.6236 28.784 77.5596 27.936C77.5116 27.072 77.4876 26.224 77.4876 25.392V17.256H79.3836V33H77.3196L71.6076 23.088L69.9036 19.848H69.8076C69.8716 20.648 69.9276 21.464 69.9756 22.296C70.0396 23.112 70.0716 23.936 70.0716 24.768V33H68.1756ZM83.7147 33V17.256H92.7867V18.936H85.7067V23.88H91.6827V25.584H85.7067V31.296H93.0267V33H83.7147Z" fill="#DC2626"/>
<path d="M96.3709 33V17.256H100.859C101.739 17.256 102.539 17.336 103.259 17.496C103.995 17.656 104.619 17.92 105.131 18.288C105.643 18.64 106.043 19.112 106.331 19.704C106.619 20.296 106.763 21.024 106.763 21.888C106.763 22.72 106.619 23.44 106.331 24.048C106.059 24.656 105.667 25.16 105.155 25.56C104.643 25.96 104.027 26.264 103.307 26.472C102.603 26.664 101.819 26.76 100.955 26.76H98.3629V33H96.3709ZM98.3629 25.128H100.715C102.091 25.128 103.107 24.872 103.763 24.36C104.435 23.832 104.771 23.008 104.771 21.888C104.771 20.752 104.419 19.968 103.715 19.536C103.027 19.088 101.995 18.864 100.619 18.864H98.3629V25.128ZM109.965 33V17.256H111.957V23.856H119.277V17.256H121.293V33H119.277V25.584H111.957V33H109.965ZM131.429 33.288C130.437 33.288 129.525 33.096 128.693 32.712C127.877 32.328 127.173 31.784 126.581 31.08C125.989 30.36 125.525 29.496 125.189 28.488C124.869 27.464 124.709 26.32 124.709 25.056C124.709 23.792 124.869 22.664 125.189 21.672C125.525 20.664 125.989 19.816 126.581 19.128C127.173 18.424 127.877 17.888 128.693 17.52C129.525 17.152 130.437 16.968 131.429 16.968C132.421 16.968 133.325 17.16 134.141 17.544C134.973 17.912 135.685 18.448 136.277 19.152C136.885 19.84 137.349 20.688 137.669 21.696C138.005 22.688 138.173 23.808 138.173 25.056C138.173 26.32 138.005 27.464 137.669 28.488C137.349 29.496 136.885 30.36 136.277 31.08C135.685 31.784 134.973 32.328 134.141 32.712C133.325 33.096 132.421 33.288 131.429 33.288ZM131.429 31.536C132.133 31.536 132.765 31.384 133.325 31.08C133.901 30.776 134.389 30.344 134.789 29.784C135.205 29.208 135.525 28.528 135.749 27.744C135.973 26.944 136.085 26.048 136.085 25.056C136.085 24.08 135.973 23.2 135.749 22.416C135.525 21.632 135.205 20.968 134.789 20.424C134.389 19.88 133.901 19.464 133.325 19.176C132.765 18.872 132.133 18.72 131.429 18.72C130.725 18.72 130.085 18.872 129.509 19.176C128.949 19.464 128.461 19.88 128.045 20.424C127.645 20.968 127.333 21.632 127.109 22.416C126.885 23.2 126.773 24.08 126.773 25.056C126.773 26.048 126.885 26.944 127.109 27.744C127.333 28.528 127.645 29.208 128.045 29.784C128.461 30.344 128.949 30.776 129.509 31.08C130.085 31.384 130.725 31.536 131.429 31.536ZM141.558 33V17.256H146.478C147.278 17.256 148.014 17.336 148.686 17.496C149.374 17.64 149.958 17.888 150.438 18.24C150.934 18.592 151.318 19.048 151.59 19.608C151.862 20.168 151.998 20.856 151.998 21.672C151.998 22.904 151.678 23.888 151.038 24.624C150.398 25.36 149.534 25.864 148.446 26.136L152.454 33H150.198L146.406 26.352H143.55V33H141.558ZM143.55 24.72H146.19C147.422 24.72 148.366 24.472 149.022 23.976C149.678 23.464 150.006 22.696 150.006 21.672C150.006 20.632 149.678 19.904 149.022 19.488C148.366 19.072 147.422 18.864 146.19 18.864H143.55V24.72ZM155.223 33V17.256H157.215V33H155.223ZM164.239 24.192L163.495 26.592H168.223L167.479 24.192C167.191 23.312 166.919 22.44 166.663 21.576C166.407 20.696 166.151 19.8 165.895 18.888H165.799C165.559 19.8 165.311 20.696 165.055 21.576C164.799 22.44 164.527 23.312 164.239 24.192ZM159.439 33L164.767 17.256H167.023L172.351 33H170.215L168.727 28.2H162.991L161.479 33H159.439Z" fill="white"/>
</svg>
