<svg width="173" height="37" viewBox="0 0 173 37" fill="none" xmlns="http://www.w3.org/2000/svg">
<path d="M16 0L32 24.8889L16 32L0 24.8889L16 0Z" fill="#DC2626"/>
<path d="M40.056 18.144C39.56 18.144 39.104 18.052 38.688 17.868C38.272 17.684 37.908 17.42 37.596 17.076C37.292 16.724 37.052 16.296 36.876 15.792C36.708 15.28 36.624 14.704 36.624 14.064C36.624 13.432 36.712 12.864 36.888 12.36C37.064 11.856 37.308 11.428 37.62 11.076C37.932 10.724 38.3 10.456 38.724 10.272C39.148 10.08 39.612 9.984 40.116 9.984C40.596 9.984 41.016 10.084 41.376 10.284C41.744 10.476 42.044 10.7 42.276 10.956L41.736 11.604C41.528 11.38 41.292 11.2 41.028 11.064C40.764 10.928 40.464 10.86 40.128 10.86C39.752 10.86 39.412 10.936 39.108 11.088C38.804 11.232 38.544 11.444 38.328 11.724C38.112 11.996 37.944 12.328 37.824 12.72C37.712 13.112 37.656 13.552 37.656 14.04C37.656 14.536 37.712 14.984 37.824 15.384C37.944 15.776 38.108 16.112 38.316 16.392C38.524 16.672 38.776 16.888 39.072 17.04C39.376 17.192 39.716 17.268 40.092 17.268C40.476 17.268 40.812 17.192 41.1 17.04C41.388 16.88 41.66 16.66 41.916 16.38L42.468 17.004C42.156 17.364 41.804 17.644 41.412 17.844C41.02 18.044 40.568 18.144 40.056 18.144ZM43.9355 18V10.128H44.9315V18H43.9355ZM47.0878 18V10.128H48.1198L50.9638 15.072L51.8158 16.704H51.8638C51.8398 16.304 51.8118 15.892 51.7798 15.468C51.7558 15.036 51.7438 14.612 51.7438 14.196V10.128H52.6918V18H51.6598L48.8038 13.044L47.9518 11.424H47.9038C47.9358 11.824 47.9638 12.232 47.9878 12.648C48.0198 13.056 48.0358 13.468 48.0358 13.884V18H47.0878ZM54.8573 18V10.128H59.3933V10.968H55.8533V13.44H58.8413V14.292H55.8533V17.148H59.5133V18H54.8573Z" fill="#DC2626"/>
<path d="M61.1855 18V10.128H63.4295C63.8695 10.128 64.2695 10.168 64.6295 10.248C64.9975 10.328 65.3095 10.46 65.5655 10.644C65.8215 10.82 66.0215 11.056 66.1655 11.352C66.3095 11.648 66.3815 12.012 66.3815 12.444C66.3815 12.86 66.3095 13.22 66.1655 13.524C66.0295 13.828 65.8335 14.08 65.5775 14.28C65.3215 14.48 65.0135 14.632 64.6535 14.736C64.3015 14.832 63.9095 14.88 63.4775 14.88H62.1815V18H61.1855ZM62.1815 14.064H63.3575C64.0455 14.064 64.5535 13.936 64.8815 13.68C65.2175 13.416 65.3855 13.004 65.3855 12.444C65.3855 11.876 65.2095 11.484 64.8575 11.268C64.5135 11.044 63.9975 10.932 63.3095 10.932H62.1815V14.064ZM67.9823 18V10.128H68.9783V13.428H72.6383V10.128H73.6463V18H72.6383V14.292H68.9783V18H67.9823ZM78.7145 18.144C78.2185 18.144 77.7625 18.048 77.3465 17.856C76.9385 17.664 76.5865 17.392 76.2905 17.04C75.9945 16.68 75.7625 16.248 75.5945 15.744C75.4345 15.232 75.3545 14.66 75.3545 14.028C75.3545 13.396 75.4345 12.832 75.5945 12.336C75.7625 11.832 75.9945 11.408 76.2905 11.064C76.5865 10.712 76.9385 10.444 77.3465 10.26C77.7625 10.076 78.2185 9.984 78.7145 9.984C79.2105 9.984 79.6625 10.08 80.0705 10.272C80.4865 10.456 80.8425 10.724 81.1385 11.076C81.4425 11.42 81.6745 11.844 81.8345 12.348C82.0025 12.844 82.0865 13.404 82.0865 14.028C82.0865 14.66 82.0025 15.232 81.8345 15.744C81.6745 16.248 81.4425 16.68 81.1385 17.04C80.8425 17.392 80.4865 17.664 80.0705 17.856C79.6625 18.048 79.2105 18.144 78.7145 18.144ZM78.7145 17.268C79.0665 17.268 79.3825 17.192 79.6625 17.04C79.9505 16.888 80.1945 16.672 80.3945 16.392C80.6025 16.104 80.7625 15.764 80.8745 15.372C80.9865 14.972 81.0425 14.524 81.0425 14.028C81.0425 13.54 80.9865 13.1 80.8745 12.708C80.7625 12.316 80.6025 11.984 80.3945 11.712C80.1945 11.44 79.9505 11.232 79.6625 11.088C79.3825 10.936 79.0665 10.86 78.7145 10.86C78.3625 10.86 78.0425 10.936 77.7545 11.088C77.4745 11.232 77.2305 11.44 77.0225 11.712C76.8225 11.984 76.6665 12.316 76.5545 12.708C76.4425 13.1 76.3865 13.54 76.3865 14.028C76.3865 14.524 76.4425 14.972 76.5545 15.372C76.6665 15.764 76.8225 16.104 77.0225 16.392C77.2305 16.672 77.4745 16.888 77.7545 17.04C78.0425 17.192 78.3625 17.268 78.7145 17.268ZM83.7792 18V10.128H86.2392C86.6392 10.128 87.0072 10.168 87.3432 10.248C87.6872 10.32 87.9792 10.444 88.2192 10.62C88.4672 10.796 88.6592 11.024 88.7952 11.304C88.9312 11.584 88.9992 11.928 88.9992 12.336C88.9992 12.952 88.8392 13.444 88.5192 13.812C88.1992 14.18 87.7672 14.432 87.2232 14.568L89.2272 18H88.0992L86.2032 14.676H84.7752V18H83.7792ZM84.7752 13.86H86.0952C86.7112 13.86 87.1832 13.736 87.5112 13.488C87.8392 13.232 88.0032 12.848 88.0032 12.336C88.0032 11.816 87.8392 11.452 87.5112 11.244C87.1832 11.036 86.7112 10.932 86.0952 10.932H84.7752V13.86ZM90.6113 18V10.128H91.6073V18H90.6113ZM95.1196 13.596L94.7476 14.796H97.1116L96.7396 13.596C96.5956 13.156 96.4596 12.72 96.3316 12.288C96.2036 11.848 96.0756 11.4 95.9476 10.944H95.8996C95.7796 11.4 95.6556 11.848 95.5276 12.288C95.3996 12.72 95.2636 13.156 95.1196 13.596ZM92.7196 18L95.3836 10.128H96.5116L99.1756 18H98.1076L97.3636 15.6H94.4956L93.7396 18H92.7196Z" fill="white"/>
<path d="M38.368 25.096C38.08 25.096 37.816 25.048 37.576 24.952C37.3413 24.8507 37.1387 24.7067 36.968 24.52C36.8027 24.3333 36.672 24.1093 36.576 23.848C36.4853 23.5813 36.44 23.28 36.44 22.944C36.44 22.6187 36.488 22.3253 36.584 22.064C36.68 21.7973 36.816 21.5707 36.992 21.384C37.168 21.1973 37.376 21.056 37.616 20.96C37.8613 20.8587 38.1333 20.808 38.432 20.808C38.7253 20.808 38.968 20.8613 39.16 20.968C39.3573 21.0693 39.5173 21.1787 39.64 21.296L39.424 21.536C39.312 21.424 39.1787 21.3307 39.024 21.256C38.8693 21.176 38.672 21.136 38.432 21.136C37.9307 21.136 37.536 21.296 37.248 21.616C36.9653 21.936 36.824 22.3787 36.824 22.944C36.824 23.504 36.96 23.9493 37.232 24.28C37.5093 24.6053 37.8987 24.768 38.4 24.768C38.5973 24.768 38.776 24.744 38.936 24.696C39.1013 24.6427 39.2373 24.5707 39.344 24.48V23.256H38.32V22.96H39.696V24.656C39.5573 24.7787 39.3733 24.8827 39.144 24.968C38.92 25.0533 38.6613 25.096 38.368 25.096ZM41.0494 25V20.904H42.3454C42.5694 20.904 42.7721 20.9253 42.9534 20.968C43.1348 21.0053 43.2894 21.0693 43.4174 21.16C43.5454 21.2453 43.6441 21.36 43.7134 21.504C43.7881 21.6427 43.8254 21.8133 43.8254 22.016C43.8254 22.3413 43.7268 22.6 43.5294 22.792C43.3321 22.984 43.0628 23.104 42.7214 23.152L43.9214 25H43.5134L42.3294 23.176H41.4174V25H41.0494ZM41.4174 22.888H42.2654C43.0654 22.888 43.4654 22.6 43.4654 22.024C43.4654 21.72 43.3614 21.5067 43.1534 21.384C42.9508 21.2613 42.6548 21.2 42.2654 21.2H41.4174V22.888ZM46.5694 25.096C46.2974 25.096 46.0468 25.0453 45.8174 24.944C45.5934 24.8427 45.3988 24.6987 45.2334 24.512C45.0681 24.3253 44.9401 24.1013 44.8494 23.84C44.7588 23.5733 44.7134 23.2747 44.7134 22.944C44.7134 22.6133 44.7588 22.3173 44.8494 22.056C44.9401 21.7893 45.0681 21.5653 45.2334 21.384C45.3988 21.1973 45.5934 21.056 45.8174 20.96C46.0468 20.8587 46.2974 20.808 46.5694 20.808C46.8414 20.808 47.0894 20.8587 47.3134 20.96C47.5428 21.056 47.7374 21.1973 47.8974 21.384C48.0628 21.5653 48.1908 21.7893 48.2814 22.056C48.3774 22.3173 48.4254 22.6133 48.4254 22.944C48.4254 23.2747 48.3774 23.5733 48.2814 23.84C48.1908 24.1013 48.0628 24.3253 47.8974 24.512C47.7374 24.6987 47.5428 24.8427 47.3134 24.944C47.0894 25.0453 46.8414 25.096 46.5694 25.096ZM46.5694 24.768C46.7881 24.768 46.9881 24.7253 47.1694 24.64C47.3508 24.5547 47.5054 24.4347 47.6334 24.28C47.7614 24.12 47.8601 23.928 47.9294 23.704C48.0041 23.48 48.0414 23.2267 48.0414 22.944C48.0414 22.6667 48.0041 22.416 47.9294 22.192C47.8601 21.968 47.7614 21.7787 47.6334 21.624C47.5054 21.464 47.3508 21.344 47.1694 21.264C46.9881 21.1787 46.7881 21.136 46.5694 21.136C46.1214 21.136 45.7641 21.296 45.4974 21.616C45.2308 21.936 45.0974 22.3787 45.0974 22.944C45.0974 23.2267 45.1321 23.48 45.2014 23.704C45.2708 23.928 45.3694 24.12 45.4974 24.28C45.6254 24.4347 45.7801 24.5547 45.9614 24.64C46.1428 24.7253 46.3454 24.768 46.5694 24.768ZM51.1472 25.096C50.9499 25.096 50.7579 25.0693 50.5712 25.016C50.3899 24.9627 50.2299 24.872 50.0912 24.744C49.9525 24.616 49.8405 24.4453 49.7552 24.232C49.6699 24.0133 49.6272 23.7413 49.6272 23.416V20.904H49.9952V23.376C49.9952 23.648 50.0245 23.8747 50.0832 24.056C50.1472 24.232 50.2299 24.3733 50.3312 24.48C50.4379 24.5867 50.5605 24.6613 50.6992 24.704C50.8432 24.7467 50.9925 24.768 51.1472 24.768C51.3019 24.768 51.4485 24.7467 51.5872 24.704C51.7312 24.6613 51.8565 24.5867 51.9632 24.48C52.0699 24.3733 52.1552 24.232 52.2192 24.056C52.2832 23.8747 52.3152 23.648 52.3152 23.376V20.904H52.6592V23.416C52.6592 23.7413 52.6165 24.0133 52.5312 24.232C52.4459 24.4453 52.3339 24.616 52.1952 24.744C52.0565 24.872 51.8965 24.9627 51.7152 25.016C51.5339 25.0693 51.3445 25.096 51.1472 25.096ZM54.1979 25V20.904H55.4379C55.9392 20.904 56.3312 20.992 56.6139 21.168C56.9019 21.3387 57.0459 21.64 57.0459 22.072C57.0459 22.488 56.9019 22.7947 56.6139 22.992C56.3312 23.1893 55.9392 23.288 55.4379 23.288H54.5659V25H54.1979ZM54.5659 23H55.3979C55.8405 23 56.1632 22.928 56.3659 22.784C56.5685 22.64 56.6699 22.4053 56.6699 22.08C56.6699 21.7493 56.5632 21.52 56.3499 21.392C56.1419 21.264 55.8139 21.2 55.3659 21.2H54.5659V23Z" fill="white"/>
<path d="M65.776 25V20.904H68.232V21.208H66.144V22.776H67.904V23.072H66.144V25H65.776ZM69.1666 25V20.904H70.4626C70.6866 20.904 70.8893 20.9253 71.0706 20.968C71.252 21.0053 71.4066 21.0693 71.5346 21.16C71.6626 21.2453 71.7613 21.36 71.8306 21.504C71.9053 21.6427 71.9426 21.8133 71.9426 22.016C71.9426 22.3413 71.844 22.6 71.6466 22.792C71.4493 22.984 71.18 23.104 70.8386 23.152L72.0386 25H71.6306L70.4466 23.176H69.5346V25H69.1666ZM69.5346 22.888H70.3826C71.1826 22.888 71.5826 22.6 71.5826 22.024C71.5826 21.72 71.4786 21.5067 71.2706 21.384C71.068 21.2613 70.772 21.2 70.3826 21.2H69.5346V22.888ZM73.7026 22.616L73.4306 23.36H74.9586L74.6866 22.616C74.596 22.3653 74.5133 22.136 74.4386 21.928C74.364 21.72 74.2866 21.496 74.2066 21.256H74.1746C74.0946 21.496 74.0173 21.7227 73.9426 21.936C73.8733 22.144 73.7933 22.3707 73.7026 22.616ZM72.4546 25L74.0066 20.904H74.3826L75.9346 25H75.5506L75.0626 23.656H73.3186L72.8226 25H72.4546ZM76.776 25V20.904H77.16L78.984 23.712L79.472 24.528H79.504C79.4933 24.3253 79.4827 24.12 79.472 23.912C79.4667 23.704 79.464 23.4987 79.464 23.296V20.904H79.8V25H79.424L77.6 22.2L77.104 21.368H77.072C77.0827 21.5707 77.0933 21.7733 77.104 21.976C77.1147 22.1733 77.12 22.3733 77.12 22.576V25H76.776ZM82.9059 25.096C82.6286 25.096 82.3726 25.048 82.1379 24.952C81.9086 24.8507 81.7113 24.7067 81.5459 24.52C81.3806 24.3333 81.2526 24.1093 81.1619 23.848C81.0713 23.5813 81.0259 23.28 81.0259 22.944C81.0259 22.6187 81.0713 22.3253 81.1619 22.064C81.2579 21.7973 81.3913 21.5707 81.5619 21.384C81.7326 21.1973 81.9353 21.056 82.1699 20.96C82.4046 20.8587 82.6659 20.808 82.9539 20.808C83.2099 20.808 83.4366 20.8587 83.6339 20.96C83.8313 21.0613 83.9913 21.1787 84.1139 21.312L83.8979 21.552C83.7753 21.4293 83.6366 21.3307 83.4819 21.256C83.3326 21.176 83.1566 21.136 82.9539 21.136C82.4686 21.136 82.0899 21.2987 81.8179 21.624C81.5459 21.944 81.4099 22.384 81.4099 22.944C81.4099 23.5093 81.5433 23.9547 81.8099 24.28C82.0819 24.6053 82.4526 24.768 82.9219 24.768C83.1513 24.768 83.3513 24.728 83.5219 24.648C83.6979 24.568 83.8633 24.4453 84.0179 24.28L84.2339 24.504C84.0526 24.696 83.8579 24.8427 83.6499 24.944C83.4419 25.0453 83.1939 25.096 82.9059 25.096ZM85.3151 25V20.904H87.7711V21.208H85.6831V22.68H87.4511V22.976H85.6831V24.696H87.8511V25H85.3151ZM90.1481 22.992V22.68H91.9081V22.992H90.1481ZM94.5963 25V20.904H95.8203C96.2683 20.904 96.6256 20.984 96.8923 21.144C97.1643 21.2987 97.3003 21.5547 97.3003 21.912C97.3003 22.12 97.239 22.3013 97.1163 22.456C96.999 22.6107 96.823 22.72 96.5883 22.784V22.816C96.8763 22.8693 97.111 22.976 97.2923 23.136C97.479 23.296 97.5723 23.5173 97.5723 23.8C97.5723 24.2053 97.4203 24.5067 97.1163 24.704C96.8176 24.9013 96.415 25 95.9083 25H94.5963ZM94.9643 22.696H95.7083C96.1563 22.696 96.4763 22.632 96.6683 22.504C96.8603 22.3707 96.9563 22.176 96.9563 21.92C96.9563 21.664 96.8523 21.48 96.6443 21.368C96.4416 21.2507 96.1403 21.192 95.7403 21.192H94.9643V22.696ZM94.9643 24.712H95.8283C96.0363 24.712 96.2256 24.6987 96.3963 24.672C96.567 24.64 96.7136 24.5893 96.8363 24.52C96.959 24.4453 97.0523 24.3493 97.1163 24.232C97.1856 24.1147 97.2203 23.9707 97.2203 23.8C97.2203 23.512 97.1003 23.3013 96.8603 23.168C96.6203 23.0347 96.2763 22.968 95.8283 22.968H94.9643V24.712ZM98.7057 25V20.904H101.162V21.208H99.0737V22.68H100.842V22.976H99.0737V24.696H101.242V25H98.7057ZM102.393 25V20.904H102.761V24.688H104.777V25H102.393ZM107.227 25.096C106.939 25.096 106.675 25.048 106.435 24.952C106.201 24.8507 105.998 24.7067 105.827 24.52C105.662 24.3333 105.531 24.1093 105.435 23.848C105.345 23.5813 105.299 23.28 105.299 22.944C105.299 22.6187 105.347 22.3253 105.443 22.064C105.539 21.7973 105.675 21.5707 105.851 21.384C106.027 21.1973 106.235 21.056 106.475 20.96C106.721 20.8587 106.993 20.808 107.291 20.808C107.585 20.808 107.827 20.8613 108.019 20.968C108.217 21.0693 108.377 21.1787 108.499 21.296L108.283 21.536C108.171 21.424 108.038 21.3307 107.883 21.256C107.729 21.176 107.531 21.136 107.291 21.136C106.79 21.136 106.395 21.296 106.107 21.616C105.825 21.936 105.683 22.3787 105.683 22.944C105.683 23.504 105.819 23.9493 106.091 24.28C106.369 24.6053 106.758 24.768 107.259 24.768C107.457 24.768 107.635 24.744 107.795 24.696C107.961 24.6427 108.097 24.5707 108.203 24.48V23.256H107.179V22.96H108.555V24.656C108.417 24.7787 108.233 24.8827 108.003 24.968C107.779 25.0533 107.521 25.096 107.227 25.096ZM109.909 25V20.904H110.277V25H109.909ZM113.351 24.792C113.569 24.792 113.769 24.7493 113.951 24.664C114.132 24.5733 114.287 24.448 114.415 24.288C114.543 24.128 114.641 23.936 114.711 23.712C114.785 23.4827 114.823 23.2267 114.823 22.944C114.823 22.6667 114.785 22.416 114.711 22.192C114.641 21.968 114.543 21.7787 114.415 21.624C114.287 21.464 114.132 21.344 113.951 21.264C113.769 21.1787 113.569 21.136 113.351 21.136C112.903 21.136 112.545 21.296 112.279 21.616C112.012 21.936 111.879 22.3787 111.879 22.944C111.879 23.2267 111.913 23.4827 111.983 23.712C112.052 23.936 112.151 24.128 112.279 24.288C112.407 24.448 112.561 24.5733 112.743 24.664C112.924 24.7493 113.127 24.792 113.351 24.792ZM114.647 26.136C114.268 26.136 113.951 26.0373 113.695 25.84C113.444 25.6427 113.26 25.392 113.143 25.088C112.897 25.0613 112.673 24.992 112.471 24.88C112.268 24.768 112.095 24.6213 111.951 24.44C111.807 24.2533 111.695 24.0347 111.615 23.784C111.535 23.528 111.495 23.248 111.495 22.944C111.495 22.6133 111.54 22.3173 111.631 22.056C111.721 21.7893 111.849 21.5653 112.015 21.384C112.18 21.1973 112.375 21.056 112.599 20.96C112.828 20.8587 113.079 20.808 113.351 20.808C113.623 20.808 113.871 20.8587 114.095 20.96C114.324 21.056 114.519 21.1973 114.679 21.384C114.844 21.5653 114.972 21.7893 115.063 22.056C115.159 22.3173 115.207 22.6133 115.207 22.944C115.207 23.2533 115.164 23.536 115.079 23.792C114.999 24.0427 114.884 24.2613 114.735 24.448C114.585 24.6347 114.407 24.784 114.199 24.896C113.996 25.0027 113.772 25.0667 113.527 25.088C113.628 25.3387 113.777 25.5227 113.975 25.64C114.172 25.7573 114.407 25.816 114.679 25.816C114.78 25.816 114.865 25.808 114.935 25.792C115.009 25.7813 115.076 25.768 115.135 25.752L115.215 26.048C115.156 26.0747 115.076 26.096 114.975 26.112C114.873 26.128 114.764 26.136 114.647 26.136ZM117.928 25.096C117.731 25.096 117.539 25.0693 117.352 25.016C117.171 24.9627 117.011 24.872 116.872 24.744C116.734 24.616 116.622 24.4453 116.536 24.232C116.451 24.0133 116.408 23.7413 116.408 23.416V20.904H116.776V23.376C116.776 23.648 116.806 23.8747 116.864 24.056C116.928 24.232 117.011 24.3733 117.112 24.48C117.219 24.5867 117.342 24.6613 117.48 24.704C117.624 24.7467 117.774 24.768 117.928 24.768C118.083 24.768 118.23 24.7467 118.368 24.704C118.512 24.6613 118.638 24.5867 118.744 24.48C118.851 24.3733 118.936 24.232 119 24.056C119.064 23.8747 119.096 23.648 119.096 23.376V20.904H119.44V23.416C119.44 23.7413 119.398 24.0133 119.312 24.232C119.227 24.4453 119.115 24.616 118.976 24.744C118.838 24.872 118.678 24.9627 118.496 25.016C118.315 25.0693 118.126 25.096 117.928 25.096ZM120.979 25V20.904H123.435V21.208H121.347V22.68H123.115V22.976H121.347V24.696H123.515V25H120.979Z" fill="white"/>
<line x1="61.25" y1="21" x2="61.25" y2="25" stroke="white" stroke-width="0.5"/>
</svg>
